<svg xmlns="http://www.w3.org/2000/svg" xmlns:xlink="http://www.w3.org/1999/xlink" width="175" zoomAndPan="magnify" viewBox="0 0 131.25 47.25" height="63" preserveAspectRatio="xMidYMid meet" version="1.0"><defs><g/><clipPath id="a2a0384556"><path d="M 91.613281 7.363281 L 121.011719 7.363281 L 121.011719 36.761719 L 91.613281 36.761719 Z M 91.613281 7.363281 " clip-rule="nonzero"/></clipPath><clipPath id="55e4191e02"><path d="M 106.3125 7.363281 C 98.195312 7.363281 91.613281 13.945312 91.613281 22.0625 C 91.613281 30.179688 98.195312 36.761719 106.3125 36.761719 C 114.429688 36.761719 121.011719 30.179688 121.011719 22.0625 C 121.011719 13.945312 114.429688 7.363281 106.3125 7.363281 Z M 106.3125 7.363281 " clip-rule="nonzero"/></clipPath><clipPath id="f349fb0dfd"><path d="M 95.042969 11 L 117 11 L 117 33 L 95.042969 33 Z M 95.042969 11 " clip-rule="nonzero"/></clipPath><clipPath id="a23907337b"><path d="M 2.734375 1.917969 L 128.230469 1.917969 L 128.230469 44 L 2.734375 44 Z M 2.734375 1.917969 " clip-rule="nonzero"/></clipPath><clipPath id="c484d3d819"><path d="M 21.1875 1.917969 L 109.90625 1.917969 C 120.097656 1.917969 128.359375 10.179688 128.359375 20.371094 L 128.359375 25.6875 C 128.359375 35.878906 120.097656 44.140625 109.90625 44.140625 L 21.1875 44.140625 C 10.996094 44.140625 2.734375 35.878906 2.734375 25.6875 L 2.734375 20.371094 C 2.734375 10.179688 10.996094 1.917969 21.1875 1.917969 Z M 21.1875 1.917969 " clip-rule="nonzero"/></clipPath></defs><g fill="#ffffff" fill-opacity="1"><g transform="translate(10.770703, 19.256763)"><g><path d="M 1.484375 0 L 0.8125 0 L 0.8125 -5.859375 L 4.0625 -5.859375 L 4.0625 -5.25 L 1.484375 -5.25 L 1.484375 -3.109375 L 3.90625 -3.109375 L 3.90625 -2.5 L 1.484375 -2.5 Z M 1.484375 0 "/></g></g><g transform="translate(15.006935, 19.256763)"><g><path d="M 3.40625 0 L 3.265625 -0.625 L 3.234375 -0.625 C 3.015625 -0.351562 2.796875 -0.164062 2.578125 -0.0625 C 2.367188 0.03125 2.097656 0.078125 1.765625 0.078125 C 1.335938 0.078125 1 -0.03125 0.75 -0.25 C 0.5 -0.476562 0.375 -0.800781 0.375 -1.21875 C 0.375 -2.101562 1.082031 -2.566406 2.5 -2.609375 L 3.25 -2.625 L 3.25 -2.90625 C 3.25 -3.25 3.171875 -3.5 3.015625 -3.65625 C 2.867188 -3.820312 2.632812 -3.90625 2.3125 -3.90625 C 1.945312 -3.90625 1.535156 -3.796875 1.078125 -3.578125 L 0.875 -4.078125 C 1.082031 -4.203125 1.316406 -4.296875 1.578125 -4.359375 C 1.835938 -4.429688 2.097656 -4.46875 2.359375 -4.46875 C 2.878906 -4.46875 3.265625 -4.347656 3.515625 -4.109375 C 3.765625 -3.878906 3.890625 -3.507812 3.890625 -3 L 3.890625 0 Z M 1.90625 -0.46875 C 2.3125 -0.46875 2.632812 -0.582031 2.875 -0.8125 C 3.113281 -1.039062 3.234375 -1.359375 3.234375 -1.765625 L 3.234375 -2.15625 L 2.5625 -2.125 C 2.039062 -2.113281 1.660156 -2.035156 1.421875 -1.890625 C 1.191406 -1.742188 1.078125 -1.515625 1.078125 -1.203125 C 1.078125 -0.960938 1.148438 -0.78125 1.296875 -0.65625 C 1.441406 -0.53125 1.644531 -0.46875 1.90625 -0.46875 Z M 1.90625 -0.46875 "/></g></g><g transform="translate(19.571806, 19.256763)"><g><path d="M 2.453125 0.078125 C 1.816406 0.078125 1.320312 -0.113281 0.96875 -0.5 C 0.625 -0.894531 0.453125 -1.453125 0.453125 -2.171875 C 0.453125 -2.898438 0.628906 -3.460938 0.984375 -3.859375 C 1.335938 -4.265625 1.84375 -4.46875 2.5 -4.46875 C 2.707031 -4.46875 2.914062 -4.441406 3.125 -4.390625 C 3.34375 -4.347656 3.515625 -4.296875 3.640625 -4.234375 L 3.421875 -3.671875 C 3.273438 -3.734375 3.113281 -3.78125 2.9375 -3.8125 C 2.769531 -3.851562 2.617188 -3.875 2.484375 -3.875 C 1.597656 -3.875 1.15625 -3.304688 1.15625 -2.171875 C 1.15625 -1.628906 1.257812 -1.210938 1.46875 -0.921875 C 1.6875 -0.640625 2.007812 -0.5 2.4375 -0.5 C 2.800781 -0.5 3.175781 -0.578125 3.5625 -0.734375 L 3.5625 -0.140625 C 3.269531 0.00390625 2.898438 0.078125 2.453125 0.078125 Z M 3.0625 1.15625 C 3.0625 1.414062 2.957031 1.613281 2.75 1.75 C 2.550781 1.894531 2.25 1.96875 1.84375 1.96875 C 1.707031 1.96875 1.578125 1.957031 1.453125 1.9375 L 1.453125 1.515625 C 1.578125 1.535156 1.71875 1.546875 1.875 1.546875 C 2.082031 1.546875 2.238281 1.515625 2.34375 1.453125 C 2.457031 1.398438 2.515625 1.304688 2.515625 1.171875 C 2.515625 1.054688 2.460938 0.960938 2.359375 0.890625 C 2.253906 0.816406 2.054688 0.757812 1.765625 0.71875 L 2.125 0 L 2.5625 0 L 2.34375 0.453125 C 2.820312 0.554688 3.0625 0.789062 3.0625 1.15625 Z M 3.0625 1.15625 "/></g></g><g transform="translate(23.479399, 19.256763)"><g><path d="M 3.40625 0 L 3.265625 -0.625 L 3.234375 -0.625 C 3.015625 -0.351562 2.796875 -0.164062 2.578125 -0.0625 C 2.367188 0.03125 2.097656 0.078125 1.765625 0.078125 C 1.335938 0.078125 1 -0.03125 0.75 -0.25 C 0.5 -0.476562 0.375 -0.800781 0.375 -1.21875 C 0.375 -2.101562 1.082031 -2.566406 2.5 -2.609375 L 3.25 -2.625 L 3.25 -2.90625 C 3.25 -3.25 3.171875 -3.5 3.015625 -3.65625 C 2.867188 -3.820312 2.632812 -3.90625 2.3125 -3.90625 C 1.945312 -3.90625 1.535156 -3.796875 1.078125 -3.578125 L 0.875 -4.078125 C 1.082031 -4.203125 1.316406 -4.296875 1.578125 -4.359375 C 1.835938 -4.429688 2.097656 -4.46875 2.359375 -4.46875 C 2.878906 -4.46875 3.265625 -4.347656 3.515625 -4.109375 C 3.765625 -3.878906 3.890625 -3.507812 3.890625 -3 L 3.890625 0 Z M 1.90625 -0.46875 C 2.3125 -0.46875 2.632812 -0.582031 2.875 -0.8125 C 3.113281 -1.039062 3.234375 -1.359375 3.234375 -1.765625 L 3.234375 -2.15625 L 2.5625 -2.125 C 2.039062 -2.113281 1.660156 -2.035156 1.421875 -1.890625 C 1.191406 -1.742188 1.078125 -1.515625 1.078125 -1.203125 C 1.078125 -0.960938 1.148438 -0.78125 1.296875 -0.65625 C 1.441406 -0.53125 1.644531 -0.46875 1.90625 -0.46875 Z M 1.90625 -0.46875 "/></g></g><g transform="translate(28.044269, 19.256763)"><g/></g><g transform="translate(30.176412, 19.256763)"><g><path d="M 3.40625 0 L 3.265625 -0.625 L 3.234375 -0.625 C 3.015625 -0.351562 2.796875 -0.164062 2.578125 -0.0625 C 2.367188 0.03125 2.097656 0.078125 1.765625 0.078125 C 1.335938 0.078125 1 -0.03125 0.75 -0.25 C 0.5 -0.476562 0.375 -0.800781 0.375 -1.21875 C 0.375 -2.101562 1.082031 -2.566406 2.5 -2.609375 L 3.25 -2.625 L 3.25 -2.90625 C 3.25 -3.25 3.171875 -3.5 3.015625 -3.65625 C 2.867188 -3.820312 2.632812 -3.90625 2.3125 -3.90625 C 1.945312 -3.90625 1.535156 -3.796875 1.078125 -3.578125 L 0.875 -4.078125 C 1.082031 -4.203125 1.316406 -4.296875 1.578125 -4.359375 C 1.835938 -4.429688 2.097656 -4.46875 2.359375 -4.46875 C 2.878906 -4.46875 3.265625 -4.347656 3.515625 -4.109375 C 3.765625 -3.878906 3.890625 -3.507812 3.890625 -3 L 3.890625 0 Z M 1.90625 -0.46875 C 2.3125 -0.46875 2.632812 -0.582031 2.875 -0.8125 C 3.113281 -1.039062 3.234375 -1.359375 3.234375 -1.765625 L 3.234375 -2.15625 L 2.5625 -2.125 C 2.039062 -2.113281 1.660156 -2.035156 1.421875 -1.890625 C 1.191406 -1.742188 1.078125 -1.515625 1.078125 -1.203125 C 1.078125 -0.960938 1.148438 -0.78125 1.296875 -0.65625 C 1.441406 -0.53125 1.644531 -0.46875 1.90625 -0.46875 Z M 1.90625 -0.46875 "/></g></g><g transform="translate(34.741283, 19.256763)"><g><path d="M 4.296875 -4.390625 L 4.296875 -3.96875 L 3.484375 -3.875 C 3.554688 -3.78125 3.617188 -3.65625 3.671875 -3.5 C 3.734375 -3.351562 3.765625 -3.1875 3.765625 -3 C 3.765625 -2.5625 3.617188 -2.210938 3.328125 -1.953125 C 3.035156 -1.703125 2.632812 -1.578125 2.125 -1.578125 C 1.988281 -1.578125 1.863281 -1.585938 1.75 -1.609375 C 1.46875 -1.460938 1.328125 -1.273438 1.328125 -1.046875 C 1.328125 -0.929688 1.375 -0.84375 1.46875 -0.78125 C 1.570312 -0.726562 1.742188 -0.703125 1.984375 -0.703125 L 2.765625 -0.703125 C 3.242188 -0.703125 3.609375 -0.597656 3.859375 -0.390625 C 4.109375 -0.191406 4.234375 0.0976562 4.234375 0.484375 C 4.234375 0.960938 4.039062 1.328125 3.65625 1.578125 C 3.269531 1.835938 2.703125 1.96875 1.953125 1.96875 C 1.378906 1.96875 0.9375 1.859375 0.625 1.640625 C 0.3125 1.429688 0.15625 1.132812 0.15625 0.75 C 0.15625 0.476562 0.238281 0.242188 0.40625 0.046875 C 0.582031 -0.140625 0.828125 -0.269531 1.140625 -0.34375 C 1.023438 -0.394531 0.925781 -0.472656 0.84375 -0.578125 C 0.769531 -0.679688 0.734375 -0.804688 0.734375 -0.953125 C 0.734375 -1.109375 0.773438 -1.242188 0.859375 -1.359375 C 0.953125 -1.484375 1.085938 -1.601562 1.265625 -1.71875 C 1.035156 -1.8125 0.847656 -1.96875 0.703125 -2.1875 C 0.566406 -2.414062 0.5 -2.675781 0.5 -2.96875 C 0.5 -3.445312 0.640625 -3.816406 0.921875 -4.078125 C 1.210938 -4.335938 1.625 -4.46875 2.15625 -4.46875 C 2.382812 -4.46875 2.59375 -4.441406 2.78125 -4.390625 Z M 0.796875 0.734375 C 0.796875 0.972656 0.894531 1.15625 1.09375 1.28125 C 1.289062 1.40625 1.578125 1.46875 1.953125 1.46875 C 2.515625 1.46875 2.925781 1.382812 3.1875 1.21875 C 3.457031 1.050781 3.59375 0.820312 3.59375 0.53125 C 3.59375 0.289062 3.519531 0.125 3.375 0.03125 C 3.226562 -0.0507812 2.953125 -0.09375 2.546875 -0.09375 L 1.75 -0.09375 C 1.445312 -0.09375 1.210938 -0.0234375 1.046875 0.109375 C 0.878906 0.253906 0.796875 0.460938 0.796875 0.734375 Z M 1.15625 -2.984375 C 1.15625 -2.671875 1.238281 -2.4375 1.40625 -2.28125 C 1.582031 -2.125 1.828125 -2.046875 2.140625 -2.046875 C 2.785156 -2.046875 3.109375 -2.363281 3.109375 -3 C 3.109375 -3.65625 2.78125 -3.984375 2.125 -3.984375 C 1.8125 -3.984375 1.570312 -3.898438 1.40625 -3.734375 C 1.238281 -3.566406 1.15625 -3.316406 1.15625 -2.984375 Z M 1.15625 -2.984375 "/></g></g><g transform="translate(39.238021, 19.256763)"><g><path d="M 4.5 -2.203125 C 4.5 -1.484375 4.316406 -0.921875 3.953125 -0.515625 C 3.585938 -0.117188 3.085938 0.078125 2.453125 0.078125 C 2.066406 0.078125 1.71875 -0.0078125 1.40625 -0.1875 C 1.101562 -0.375 0.867188 -0.640625 0.703125 -0.984375 C 0.535156 -1.328125 0.453125 -1.734375 0.453125 -2.203125 C 0.453125 -2.910156 0.628906 -3.460938 0.984375 -3.859375 C 1.347656 -4.265625 1.847656 -4.46875 2.484375 -4.46875 C 3.097656 -4.46875 3.585938 -4.265625 3.953125 -3.859375 C 4.316406 -3.453125 4.5 -2.898438 4.5 -2.203125 Z M 1.15625 -2.203125 C 1.15625 -1.640625 1.265625 -1.210938 1.484375 -0.921875 C 1.710938 -0.628906 2.039062 -0.484375 2.46875 -0.484375 C 2.90625 -0.484375 3.238281 -0.628906 3.46875 -0.921875 C 3.695312 -1.210938 3.8125 -1.640625 3.8125 -2.203125 C 3.8125 -2.753906 3.695312 -3.175781 3.46875 -3.46875 C 3.238281 -3.757812 2.90625 -3.90625 2.46875 -3.90625 C 2.03125 -3.90625 1.703125 -3.757812 1.484375 -3.46875 C 1.265625 -3.1875 1.15625 -2.765625 1.15625 -2.203125 Z M 1.15625 -2.203125 "/></g></g><g transform="translate(44.195655, 19.256763)"><g><path d="M 2.703125 -4.46875 C 2.898438 -4.46875 3.078125 -4.453125 3.234375 -4.421875 L 3.140625 -3.8125 C 2.960938 -3.84375 2.800781 -3.859375 2.65625 -3.859375 C 2.300781 -3.859375 2 -3.710938 1.75 -3.421875 C 1.5 -3.140625 1.375 -2.785156 1.375 -2.359375 L 1.375 0 L 0.703125 0 L 0.703125 -4.390625 L 1.25 -4.390625 L 1.328125 -3.578125 L 1.359375 -3.578125 C 1.523438 -3.859375 1.722656 -4.078125 1.953125 -4.234375 C 2.179688 -4.390625 2.429688 -4.46875 2.703125 -4.46875 Z M 2.703125 -4.46875 "/></g></g><g transform="translate(47.546165, 19.256763)"><g><path d="M 3.40625 0 L 3.265625 -0.625 L 3.234375 -0.625 C 3.015625 -0.351562 2.796875 -0.164062 2.578125 -0.0625 C 2.367188 0.03125 2.097656 0.078125 1.765625 0.078125 C 1.335938 0.078125 1 -0.03125 0.75 -0.25 C 0.5 -0.476562 0.375 -0.800781 0.375 -1.21875 C 0.375 -2.101562 1.082031 -2.566406 2.5 -2.609375 L 3.25 -2.625 L 3.25 -2.90625 C 3.25 -3.25 3.171875 -3.5 3.015625 -3.65625 C 2.867188 -3.820312 2.632812 -3.90625 2.3125 -3.90625 C 1.945312 -3.90625 1.535156 -3.796875 1.078125 -3.578125 L 0.875 -4.078125 C 1.082031 -4.203125 1.316406 -4.296875 1.578125 -4.359375 C 1.835938 -4.429688 2.097656 -4.46875 2.359375 -4.46875 C 2.878906 -4.46875 3.265625 -4.347656 3.515625 -4.109375 C 3.765625 -3.878906 3.890625 -3.507812 3.890625 -3 L 3.890625 0 Z M 1.90625 -0.46875 C 2.3125 -0.46875 2.632812 -0.582031 2.875 -0.8125 C 3.113281 -1.039062 3.234375 -1.359375 3.234375 -1.765625 L 3.234375 -2.15625 L 2.5625 -2.125 C 2.039062 -2.113281 1.660156 -2.035156 1.421875 -1.890625 C 1.191406 -1.742188 1.078125 -1.515625 1.078125 -1.203125 C 1.078125 -0.960938 1.148438 -0.78125 1.296875 -0.65625 C 1.441406 -0.53125 1.644531 -0.46875 1.90625 -0.46875 Z M 1.90625 -0.46875 "/></g></g><g transform="translate(52.111036, 19.256763)"><g/></g><g transform="translate(54.243179, 19.256763)"><g><path d="M 3.53125 -1.203125 C 3.53125 -0.785156 3.378906 -0.46875 3.078125 -0.25 C 2.773438 -0.03125 2.347656 0.078125 1.796875 0.078125 C 1.210938 0.078125 0.757812 -0.015625 0.4375 -0.203125 L 0.4375 -0.8125 C 0.644531 -0.707031 0.867188 -0.625 1.109375 -0.5625 C 1.359375 -0.5 1.59375 -0.46875 1.8125 -0.46875 C 2.15625 -0.46875 2.421875 -0.519531 2.609375 -0.625 C 2.796875 -0.738281 2.890625 -0.910156 2.890625 -1.140625 C 2.890625 -1.304688 2.816406 -1.453125 2.671875 -1.578125 C 2.523438 -1.703125 2.238281 -1.847656 1.8125 -2.015625 C 1.394531 -2.160156 1.097656 -2.289062 0.921875 -2.40625 C 0.753906 -2.519531 0.628906 -2.648438 0.546875 -2.796875 C 0.460938 -2.941406 0.421875 -3.113281 0.421875 -3.3125 C 0.421875 -3.664062 0.566406 -3.945312 0.859375 -4.15625 C 1.148438 -4.363281 1.550781 -4.46875 2.0625 -4.46875 C 2.53125 -4.46875 2.988281 -4.375 3.4375 -4.1875 L 3.203125 -3.640625 C 2.765625 -3.816406 2.367188 -3.90625 2.015625 -3.90625 C 1.691406 -3.90625 1.453125 -3.851562 1.296875 -3.75 C 1.140625 -3.65625 1.0625 -3.523438 1.0625 -3.359375 C 1.0625 -3.242188 1.085938 -3.144531 1.140625 -3.0625 C 1.203125 -2.976562 1.300781 -2.894531 1.4375 -2.8125 C 1.570312 -2.738281 1.828125 -2.632812 2.203125 -2.5 C 2.722656 -2.3125 3.070312 -2.117188 3.25 -1.921875 C 3.4375 -1.734375 3.53125 -1.492188 3.53125 -1.203125 Z M 3.53125 -1.203125 "/></g></g><g transform="translate(58.158788, 19.256763)"><g><path d="M 2.5625 0.078125 C 1.914062 0.078125 1.398438 -0.117188 1.015625 -0.515625 C 0.640625 -0.910156 0.453125 -1.457031 0.453125 -2.15625 C 0.453125 -2.863281 0.625 -3.425781 0.96875 -3.84375 C 1.320312 -4.257812 1.796875 -4.46875 2.390625 -4.46875 C 2.941406 -4.46875 3.375 -4.285156 3.6875 -3.921875 C 4.007812 -3.566406 4.171875 -3.09375 4.171875 -2.5 L 4.171875 -2.078125 L 1.15625 -2.078125 C 1.164062 -1.554688 1.289062 -1.160156 1.53125 -0.890625 C 1.78125 -0.628906 2.128906 -0.5 2.578125 -0.5 C 3.054688 -0.5 3.523438 -0.597656 3.984375 -0.796875 L 3.984375 -0.203125 C 3.753906 -0.0976562 3.53125 -0.0234375 3.3125 0.015625 C 3.101562 0.0546875 2.851562 0.078125 2.5625 0.078125 Z M 2.375 -3.90625 C 2.019531 -3.90625 1.738281 -3.789062 1.53125 -3.5625 C 1.320312 -3.332031 1.203125 -3.015625 1.171875 -2.609375 L 3.453125 -2.609375 C 3.453125 -3.035156 3.359375 -3.359375 3.171875 -3.578125 C 2.992188 -3.796875 2.726562 -3.90625 2.375 -3.90625 Z M 2.375 -3.90625 "/></g></g><g transform="translate(62.763736, 19.256763)"><g><path d="M 1.328125 -4.390625 L 1.328125 -1.546875 C 1.328125 -1.179688 1.40625 -0.910156 1.5625 -0.734375 C 1.726562 -0.566406 1.988281 -0.484375 2.34375 -0.484375 C 2.800781 -0.484375 3.132812 -0.609375 3.34375 -0.859375 C 3.5625 -1.109375 3.671875 -1.515625 3.671875 -2.078125 L 3.671875 -4.390625 L 4.328125 -4.390625 L 4.328125 0 L 3.78125 0 L 3.6875 -0.59375 L 3.65625 -0.59375 C 3.507812 -0.375 3.316406 -0.207031 3.078125 -0.09375 C 2.835938 0.0195312 2.5625 0.078125 2.25 0.078125 C 1.71875 0.078125 1.316406 -0.046875 1.046875 -0.296875 C 0.785156 -0.554688 0.65625 -0.960938 0.65625 -1.515625 L 0.65625 -4.390625 Z M 1.328125 -4.390625 "/></g></g></g><g fill="#ffffff" fill-opacity="1"><g transform="translate(10.770703, 31.700187)"><g><path d="M 5.640625 0 L 5.078125 -1.8125 L 2.296875 -1.8125 L 1.75 0 L 0 0 L 2.703125 -7.671875 L 4.671875 -7.671875 L 7.390625 0 Z M 4.703125 -3.171875 C 4.191406 -4.828125 3.898438 -5.757812 3.828125 -5.96875 C 3.765625 -6.1875 3.71875 -6.359375 3.6875 -6.484375 C 3.570312 -6.035156 3.242188 -4.929688 2.703125 -3.171875 Z M 4.703125 -3.171875 "/></g></g><g transform="translate(18.159842, 31.700187)"><g><path d="M 5.921875 -5.84375 L 5.921875 -5.03125 L 5 -4.796875 C 5.164062 -4.535156 5.25 -4.242188 5.25 -3.921875 C 5.25 -3.296875 5.03125 -2.804688 4.59375 -2.453125 C 4.164062 -2.097656 3.5625 -1.921875 2.78125 -1.921875 L 2.5 -1.9375 L 2.25 -1.96875 C 2.09375 -1.84375 2.015625 -1.703125 2.015625 -1.546875 C 2.015625 -1.316406 2.304688 -1.203125 2.890625 -1.203125 L 3.890625 -1.203125 C 4.523438 -1.203125 5.007812 -1.0625 5.34375 -0.78125 C 5.6875 -0.507812 5.859375 -0.109375 5.859375 0.421875 C 5.859375 1.097656 5.570312 1.625 5 2 C 4.425781 2.382812 3.609375 2.578125 2.546875 2.578125 C 1.734375 2.578125 1.109375 2.429688 0.671875 2.140625 C 0.242188 1.859375 0.03125 1.460938 0.03125 0.953125 C 0.03125 0.597656 0.140625 0.300781 0.359375 0.0625 C 0.578125 -0.164062 0.898438 -0.332031 1.328125 -0.4375 C 1.160156 -0.507812 1.015625 -0.625 0.890625 -0.78125 C 0.773438 -0.9375 0.71875 -1.101562 0.71875 -1.28125 C 0.71875 -1.507812 0.78125 -1.695312 0.90625 -1.84375 C 1.039062 -1.988281 1.226562 -2.132812 1.46875 -2.28125 C 1.164062 -2.414062 0.921875 -2.628906 0.734375 -2.921875 C 0.554688 -3.210938 0.46875 -3.554688 0.46875 -3.953125 C 0.46875 -4.585938 0.675781 -5.078125 1.09375 -5.421875 C 1.507812 -5.773438 2.101562 -5.953125 2.875 -5.953125 C 3.03125 -5.953125 3.21875 -5.9375 3.4375 -5.90625 C 3.664062 -5.875 3.816406 -5.851562 3.890625 -5.84375 Z M 1.40625 0.828125 C 1.40625 1.046875 1.507812 1.21875 1.71875 1.34375 C 1.9375 1.46875 2.234375 1.53125 2.609375 1.53125 C 3.179688 1.53125 3.628906 1.453125 3.953125 1.296875 C 4.273438 1.140625 4.4375 0.925781 4.4375 0.65625 C 4.4375 0.4375 4.34375 0.285156 4.15625 0.203125 C 3.96875 0.117188 3.671875 0.078125 3.265625 0.078125 L 2.4375 0.078125 C 2.144531 0.078125 1.898438 0.144531 1.703125 0.28125 C 1.503906 0.414062 1.40625 0.597656 1.40625 0.828125 Z M 1.984375 -3.9375 C 1.984375 -3.613281 2.054688 -3.359375 2.203125 -3.171875 C 2.347656 -2.992188 2.570312 -2.90625 2.875 -2.90625 C 3.164062 -2.90625 3.378906 -2.992188 3.515625 -3.171875 C 3.660156 -3.359375 3.734375 -3.613281 3.734375 -3.9375 C 3.734375 -4.632812 3.445312 -4.984375 2.875 -4.984375 C 2.28125 -4.984375 1.984375 -4.632812 1.984375 -3.9375 Z M 1.984375 -3.9375 "/></g></g><g transform="translate(24.210255, 31.700187)"><g><path d="M 3.25 -4.8125 C 2.914062 -4.8125 2.648438 -4.703125 2.453125 -4.484375 C 2.265625 -4.273438 2.15625 -3.972656 2.125 -3.578125 L 4.375 -3.578125 C 4.363281 -3.972656 4.257812 -4.273438 4.0625 -4.484375 C 3.863281 -4.703125 3.59375 -4.8125 3.25 -4.8125 Z M 3.484375 0.109375 C 2.535156 0.109375 1.796875 -0.148438 1.265625 -0.671875 C 0.742188 -1.191406 0.484375 -1.925781 0.484375 -2.875 C 0.484375 -3.851562 0.726562 -4.609375 1.21875 -5.140625 C 1.707031 -5.679688 2.382812 -5.953125 3.25 -5.953125 C 4.070312 -5.953125 4.710938 -5.71875 5.171875 -5.25 C 5.628906 -4.78125 5.859375 -4.128906 5.859375 -3.296875 L 5.859375 -2.53125 L 2.09375 -2.53125 C 2.113281 -2.070312 2.25 -1.710938 2.5 -1.453125 C 2.75 -1.203125 3.097656 -1.078125 3.546875 -1.078125 C 3.898438 -1.078125 4.234375 -1.113281 4.546875 -1.1875 C 4.859375 -1.257812 5.1875 -1.378906 5.53125 -1.546875 L 5.53125 -0.3125 C 5.25 -0.164062 4.953125 -0.0625 4.640625 0 C 4.328125 0.0703125 3.941406 0.109375 3.484375 0.109375 Z M 3.484375 0.109375 "/></g></g><g transform="translate(30.537826, 31.700187)"><g><path d="M 6.234375 0 L 4.640625 0 L 4.640625 -3.40625 C 4.640625 -3.832031 4.5625 -4.148438 4.40625 -4.359375 C 4.257812 -4.566406 4.019531 -4.671875 3.6875 -4.671875 C 3.25 -4.671875 2.929688 -4.519531 2.734375 -4.21875 C 2.535156 -3.925781 2.4375 -3.4375 2.4375 -2.75 L 2.4375 0 L 0.84375 0 L 0.84375 -5.84375 L 2.046875 -5.84375 L 2.265625 -5.09375 L 2.359375 -5.09375 C 2.535156 -5.375 2.78125 -5.585938 3.09375 -5.734375 C 3.40625 -5.878906 3.757812 -5.953125 4.15625 -5.953125 C 4.832031 -5.953125 5.347656 -5.765625 5.703125 -5.390625 C 6.054688 -5.023438 6.234375 -4.5 6.234375 -3.8125 Z M 6.234375 0 "/></g></g><g transform="translate(37.576594, 31.700187)"><g><path d="M 2.6875 0.109375 C 2 0.109375 1.457031 -0.15625 1.0625 -0.6875 C 0.675781 -1.226562 0.484375 -1.96875 0.484375 -2.90625 C 0.484375 -3.863281 0.679688 -4.609375 1.078125 -5.140625 C 1.472656 -5.679688 2.023438 -5.953125 2.734375 -5.953125 C 3.460938 -5.953125 4.019531 -5.664062 4.40625 -5.09375 L 4.46875 -5.09375 C 4.382812 -5.53125 4.34375 -5.921875 4.34375 -6.265625 L 4.34375 -8.125 L 5.9375 -8.125 L 5.9375 0 L 4.71875 0 L 4.40625 -0.75 L 4.34375 -0.75 C 3.976562 -0.175781 3.425781 0.109375 2.6875 0.109375 Z M 3.25 -1.171875 C 3.65625 -1.171875 3.953125 -1.285156 4.140625 -1.515625 C 4.328125 -1.753906 4.429688 -2.160156 4.453125 -2.734375 L 4.453125 -2.90625 C 4.453125 -3.53125 4.351562 -3.976562 4.15625 -4.25 C 3.96875 -4.519531 3.65625 -4.65625 3.21875 -4.65625 C 2.863281 -4.65625 2.585938 -4.503906 2.390625 -4.203125 C 2.191406 -3.898438 2.09375 -3.460938 2.09375 -2.890625 C 2.09375 -2.316406 2.191406 -1.882812 2.390625 -1.59375 C 2.585938 -1.3125 2.875 -1.171875 3.25 -1.171875 Z M 3.25 -1.171875 "/></g></g><g transform="translate(44.353893, 31.700187)"><g><path d="M 4.546875 0 L 4.234375 -0.796875 L 4.203125 -0.796875 C 3.929688 -0.453125 3.648438 -0.210938 3.359375 -0.078125 C 3.078125 0.046875 2.707031 0.109375 2.25 0.109375 C 1.695312 0.109375 1.257812 -0.0507812 0.9375 -0.375 C 0.613281 -0.695312 0.453125 -1.15625 0.453125 -1.75 C 0.453125 -2.363281 0.664062 -2.816406 1.09375 -3.109375 C 1.53125 -3.410156 2.1875 -3.578125 3.0625 -3.609375 L 4.078125 -3.640625 L 4.078125 -3.890625 C 4.078125 -4.484375 3.773438 -4.78125 3.171875 -4.78125 C 2.703125 -4.78125 2.148438 -4.640625 1.515625 -4.359375 L 1 -5.4375 C 1.664062 -5.789062 2.410156 -5.96875 3.234375 -5.96875 C 4.015625 -5.96875 4.613281 -5.796875 5.03125 -5.453125 C 5.445312 -5.109375 5.65625 -4.585938 5.65625 -3.890625 L 5.65625 0 Z M 4.078125 -2.703125 L 3.453125 -2.6875 C 2.992188 -2.675781 2.648438 -2.59375 2.421875 -2.4375 C 2.191406 -2.28125 2.078125 -2.046875 2.078125 -1.734375 C 2.078125 -1.285156 2.335938 -1.0625 2.859375 -1.0625 C 3.222656 -1.0625 3.515625 -1.164062 3.734375 -1.375 C 3.960938 -1.59375 4.078125 -1.875 4.078125 -2.21875 Z M 4.078125 -2.703125 "/></g></g><g transform="translate(50.822658, 31.700187)"><g><path d="M 6.0625 0 L 4.46875 0 L 4.46875 -3.40625 C 4.46875 -3.832031 4.394531 -4.148438 4.25 -4.359375 C 4.113281 -4.566406 3.894531 -4.671875 3.59375 -4.671875 C 3.1875 -4.671875 2.890625 -4.519531 2.703125 -4.21875 C 2.523438 -3.925781 2.4375 -3.4375 2.4375 -2.75 L 2.4375 0 L 0.84375 0 L 0.84375 -5.84375 L 2.046875 -5.84375 L 2.265625 -5.09375 L 2.359375 -5.09375 C 2.515625 -5.363281 2.738281 -5.570312 3.03125 -5.71875 C 3.332031 -5.875 3.675781 -5.953125 4.0625 -5.953125 C 4.9375 -5.953125 5.523438 -5.664062 5.828125 -5.09375 L 5.96875 -5.09375 C 6.125 -5.363281 6.351562 -5.570312 6.65625 -5.71875 C 6.96875 -5.875 7.316406 -5.953125 7.703125 -5.953125 C 8.359375 -5.953125 8.851562 -5.78125 9.1875 -5.4375 C 9.53125 -5.101562 9.703125 -4.5625 9.703125 -3.8125 L 9.703125 0 L 8.109375 0 L 8.109375 -3.40625 C 8.109375 -3.832031 8.035156 -4.148438 7.890625 -4.359375 C 7.753906 -4.566406 7.535156 -4.671875 7.234375 -4.671875 C 6.835938 -4.671875 6.539062 -4.53125 6.34375 -4.25 C 6.15625 -3.976562 6.0625 -3.539062 6.0625 -2.9375 Z M 6.0625 0 "/></g></g><g transform="translate(61.338976, 31.700187)"><g><path d="M 3.25 -4.8125 C 2.914062 -4.8125 2.648438 -4.703125 2.453125 -4.484375 C 2.265625 -4.273438 2.15625 -3.972656 2.125 -3.578125 L 4.375 -3.578125 C 4.363281 -3.972656 4.257812 -4.273438 4.0625 -4.484375 C 3.863281 -4.703125 3.59375 -4.8125 3.25 -4.8125 Z M 3.484375 0.109375 C 2.535156 0.109375 1.796875 -0.148438 1.265625 -0.671875 C 0.742188 -1.191406 0.484375 -1.925781 0.484375 -2.875 C 0.484375 -3.851562 0.726562 -4.609375 1.21875 -5.140625 C 1.707031 -5.679688 2.382812 -5.953125 3.25 -5.953125 C 4.070312 -5.953125 4.710938 -5.71875 5.171875 -5.25 C 5.628906 -4.78125 5.859375 -4.128906 5.859375 -3.296875 L 5.859375 -2.53125 L 2.09375 -2.53125 C 2.113281 -2.070312 2.25 -1.710938 2.5 -1.453125 C 2.75 -1.203125 3.097656 -1.078125 3.546875 -1.078125 C 3.898438 -1.078125 4.234375 -1.113281 4.546875 -1.1875 C 4.859375 -1.257812 5.1875 -1.378906 5.53125 -1.546875 L 5.53125 -0.3125 C 5.25 -0.164062 4.953125 -0.0625 4.640625 0 C 4.328125 0.0703125 3.941406 0.109375 3.484375 0.109375 Z M 3.484375 0.109375 "/></g></g><g transform="translate(67.666547, 31.700187)"><g><path d="M 6.234375 0 L 4.640625 0 L 4.640625 -3.40625 C 4.640625 -3.832031 4.5625 -4.148438 4.40625 -4.359375 C 4.257812 -4.566406 4.019531 -4.671875 3.6875 -4.671875 C 3.25 -4.671875 2.929688 -4.519531 2.734375 -4.21875 C 2.535156 -3.925781 2.4375 -3.4375 2.4375 -2.75 L 2.4375 0 L 0.84375 0 L 0.84375 -5.84375 L 2.046875 -5.84375 L 2.265625 -5.09375 L 2.359375 -5.09375 C 2.535156 -5.375 2.78125 -5.585938 3.09375 -5.734375 C 3.40625 -5.878906 3.757812 -5.953125 4.15625 -5.953125 C 4.832031 -5.953125 5.347656 -5.765625 5.703125 -5.390625 C 6.054688 -5.023438 6.234375 -4.5 6.234375 -3.8125 Z M 6.234375 0 "/></g></g><g transform="translate(74.705316, 31.700187)"><g><path d="M 3.296875 -1.171875 C 3.578125 -1.171875 3.910156 -1.226562 4.296875 -1.34375 L 4.296875 -0.15625 C 3.898438 0.0195312 3.414062 0.109375 2.84375 0.109375 C 2.195312 0.109375 1.726562 -0.0507812 1.4375 -0.375 C 1.15625 -0.695312 1.015625 -1.179688 1.015625 -1.828125 L 1.015625 -4.640625 L 0.25 -4.640625 L 0.25 -5.3125 L 1.125 -5.859375 L 1.578125 -7.09375 L 2.609375 -7.09375 L 2.609375 -5.84375 L 4.234375 -5.84375 L 4.234375 -4.640625 L 2.609375 -4.640625 L 2.609375 -1.828125 C 2.609375 -1.597656 2.671875 -1.429688 2.796875 -1.328125 C 2.921875 -1.222656 3.085938 -1.171875 3.296875 -1.171875 Z M 3.296875 -1.171875 "/></g></g><g transform="translate(79.35425, 31.700187)"><g><path d="M 2.109375 -2.9375 C 2.109375 -2.351562 2.203125 -1.910156 2.390625 -1.609375 C 2.578125 -1.316406 2.882812 -1.171875 3.3125 -1.171875 C 3.738281 -1.171875 4.046875 -1.316406 4.234375 -1.609375 C 4.421875 -1.910156 4.515625 -2.351562 4.515625 -2.9375 C 4.515625 -3.507812 4.421875 -3.941406 4.234375 -4.234375 C 4.046875 -4.523438 3.738281 -4.671875 3.3125 -4.671875 C 2.882812 -4.671875 2.578125 -4.523438 2.390625 -4.234375 C 2.203125 -3.941406 2.109375 -3.507812 2.109375 -2.9375 Z M 6.140625 -2.9375 C 6.140625 -1.976562 5.890625 -1.226562 5.390625 -0.6875 C 4.890625 -0.15625 4.191406 0.109375 3.296875 0.109375 C 2.734375 0.109375 2.238281 -0.0078125 1.8125 -0.25 C 1.382812 -0.5 1.054688 -0.851562 0.828125 -1.3125 C 0.597656 -1.78125 0.484375 -2.320312 0.484375 -2.9375 C 0.484375 -3.882812 0.726562 -4.625 1.21875 -5.15625 C 1.71875 -5.6875 2.421875 -5.953125 3.328125 -5.953125 C 3.890625 -5.953125 4.382812 -5.828125 4.8125 -5.578125 C 5.238281 -5.335938 5.566406 -4.988281 5.796875 -4.53125 C 6.023438 -4.082031 6.140625 -3.550781 6.140625 -2.9375 Z M 6.140625 -2.9375 "/></g></g><g transform="translate(85.985126, 31.700187)"><g><path d="M 2.171875 -2.53125 L 0.90625 -2.53125 L 0.625 -7.640625 L 2.4375 -7.640625 Z M 0.609375 -0.75 C 0.609375 -1.039062 0.6875 -1.257812 0.84375 -1.40625 C 1 -1.5625 1.226562 -1.640625 1.53125 -1.640625 C 1.820312 -1.640625 2.046875 -1.5625 2.203125 -1.40625 C 2.359375 -1.25 2.4375 -1.03125 2.4375 -0.75 C 2.4375 -0.46875 2.351562 -0.25 2.1875 -0.09375 C 2.03125 0.0625 1.8125 0.140625 1.53125 0.140625 C 1.238281 0.140625 1.007812 0.0625 0.84375 -0.09375 C 0.6875 -0.25 0.609375 -0.46875 0.609375 -0.75 Z M 0.609375 -0.75 "/></g></g></g><g clip-path="url(#a2a0384556)"><g clip-path="url(#55e4191e02)"><path fill="#25d366" d="M 91.613281 7.363281 L 121.011719 7.363281 L 121.011719 36.761719 L 91.613281 36.761719 Z M 91.613281 7.363281 " fill-opacity="1" fill-rule="nonzero"/></g></g><g clip-path="url(#f349fb0dfd)"><path fill="#ffffff" d="M 106.308594 11.695312 C 100.589844 11.695312 95.945312 16.339844 95.945312 22.058594 C 95.945312 23.898438 96.449219 25.613281 97.289062 27.109375 L 95.960938 31.851562 C 95.941406 31.925781 95.9375 32.003906 95.960938 32.082031 C 95.980469 32.160156 96.015625 32.226562 96.074219 32.285156 C 96.128906 32.34375 96.195312 32.382812 96.273438 32.40625 C 96.347656 32.425781 96.425781 32.429688 96.503906 32.410156 L 101.445312 31.183594 C 102.898438 31.960938 104.546875 32.421875 106.308594 32.421875 C 112.027344 32.421875 116.671875 27.777344 116.671875 22.058594 C 116.671875 16.339844 112.027344 11.695312 106.308594 11.695312 Z M 106.308594 12.597656 C 111.539062 12.597656 115.769531 16.828125 115.769531 22.058594 C 115.769531 27.289062 111.539062 31.519531 106.308594 31.519531 C 104.632812 31.519531 103.0625 31.082031 101.695312 30.320312 C 101.589844 30.261719 101.480469 30.246094 101.367188 30.277344 L 97.039062 31.347656 L 98.199219 27.207031 C 98.234375 27.082031 98.21875 26.964844 98.152344 26.855469 C 97.324219 25.449219 96.847656 23.8125 96.847656 22.058594 C 96.847656 16.828125 101.078125 12.597656 106.308594 12.597656 Z M 102.542969 16.652344 C 102.253906 16.652344 101.839844 16.757812 101.503906 17.125 C 101.300781 17.34375 100.449219 18.167969 100.449219 19.621094 C 100.449219 21.136719 101.5 22.445312 101.628906 22.613281 C 101.617188 22.597656 101.789062 22.847656 102.023438 23.148438 C 102.253906 23.449219 102.578125 23.84375 102.984375 24.273438 C 103.796875 25.128906 104.9375 26.117188 106.355469 26.722656 C 107.007812 27 107.523438 27.167969 107.914062 27.289062 C 108.636719 27.515625 109.296875 27.484375 109.792969 27.410156 C 110.164062 27.355469 110.570312 27.175781 110.972656 26.921875 C 111.375 26.667969 111.769531 26.351562 111.945312 25.867188 C 112.070312 25.523438 112.132812 25.203125 112.15625 24.941406 C 112.167969 24.808594 112.167969 24.695312 112.160156 24.585938 C 112.152344 24.480469 112.160156 24.398438 112.0625 24.230469 C 111.851562 23.886719 111.613281 23.878906 111.367188 23.757812 C 111.226562 23.6875 110.835938 23.496094 110.441406 23.308594 C 110.050781 23.121094 109.710938 22.957031 109.5 22.882812 C 109.367188 22.832031 109.207031 22.765625 108.972656 22.792969 C 108.738281 22.816406 108.511719 22.984375 108.375 23.183594 C 108.25 23.375 107.738281 23.976562 107.582031 24.15625 C 107.578125 24.152344 107.59375 24.160156 107.53125 24.128906 C 107.339844 24.035156 107.101562 23.953125 106.753906 23.769531 C 106.402344 23.585938 105.96875 23.3125 105.488281 22.890625 C 104.777344 22.265625 104.28125 21.476562 104.121094 21.214844 C 104.132812 21.199219 104.121094 21.214844 104.144531 21.195312 C 104.304688 21.035156 104.449219 20.847656 104.566406 20.707031 C 104.738281 20.511719 104.8125 20.339844 104.894531 20.175781 C 105.058594 19.855469 104.96875 19.5 104.875 19.3125 C 104.878906 19.324219 104.824219 19.199219 104.761719 19.050781 C 104.699219 18.90625 104.621094 18.714844 104.535156 18.511719 C 104.367188 18.109375 104.179688 17.652344 104.066406 17.386719 C 103.933594 17.074219 103.753906 16.847656 103.523438 16.738281 C 103.289062 16.628906 103.082031 16.660156 103.074219 16.660156 C 102.90625 16.652344 102.722656 16.652344 102.542969 16.652344 Z M 102.542969 17.554688 C 102.714844 17.554688 102.886719 17.554688 103.03125 17.5625 C 103.179688 17.570312 103.167969 17.570312 103.140625 17.554688 C 103.113281 17.542969 103.152344 17.539062 103.234375 17.738281 C 103.34375 17.996094 103.535156 18.453125 103.703125 18.859375 C 103.789062 19.0625 103.867188 19.253906 103.929688 19.402344 C 103.992188 19.550781 104.027344 19.636719 104.066406 19.714844 L 104.070312 19.714844 C 104.109375 19.792969 104.105469 19.746094 104.089844 19.769531 C 103.996094 19.960938 103.984375 20.007812 103.886719 20.117188 C 103.738281 20.285156 103.589844 20.472656 103.511719 20.550781 C 103.441406 20.621094 103.316406 20.726562 103.238281 20.933594 C 103.160156 21.140625 103.199219 21.425781 103.324219 21.636719 C 103.488281 21.921875 104.039062 22.816406 104.894531 23.566406 C 105.429688 24.039062 105.933594 24.355469 106.332031 24.566406 C 106.734375 24.777344 107.058594 24.898438 107.132812 24.9375 C 107.304688 25.023438 107.492188 25.089844 107.714844 25.0625 C 107.933594 25.035156 108.125 24.902344 108.246094 24.765625 C 108.40625 24.582031 108.882812 24.035156 109.113281 23.699219 C 109.121094 23.703125 109.121094 23.703125 109.195312 23.730469 C 109.230469 23.742188 109.667969 23.9375 110.054688 24.121094 C 110.445312 24.308594 110.839844 24.5 110.964844 24.5625 C 111.152344 24.65625 111.238281 24.714844 111.261719 24.714844 C 111.261719 24.753906 111.265625 24.796875 111.257812 24.863281 C 111.242188 25.042969 111.195312 25.292969 111.097656 25.5625 C 111.050781 25.691406 110.804688 25.964844 110.492188 26.160156 C 110.179688 26.359375 109.800781 26.496094 109.660156 26.519531 C 109.238281 26.582031 108.734375 26.605469 108.183594 26.429688 C 107.804688 26.3125 107.328125 26.15625 106.710938 25.894531 C 105.460938 25.359375 104.394531 24.453125 103.636719 23.652344 C 103.257812 23.253906 102.953125 22.878906 102.738281 22.597656 C 102.519531 22.316406 102.425781 22.171875 102.347656 22.066406 C 102.207031 21.882812 101.351562 20.695312 101.351562 19.621094 C 101.351562 18.488281 101.878906 18.042969 102.164062 17.738281 C 102.3125 17.578125 102.476562 17.554688 102.542969 17.554688 Z M 102.542969 17.554688 " fill-opacity="1" fill-rule="nonzero"/></g><g clip-path="url(#a23907337b)"><g clip-path="url(#c484d3d819)"><path stroke-linecap="butt" transform="matrix(0.738281, 0, 0, 0.738281, 2.732557, 1.919532)" fill="none" stroke-linejoin="miter" d="M 24.997173 -0.0021176 L 145.166491 -0.0021176 C 158.970725 -0.0021176 170.161202 11.188359 170.161202 24.992593 L 170.161202 32.193651 C 170.161202 45.997885 158.970725 57.188362 145.166491 57.188362 L 24.997173 57.188362 C 11.192939 57.188362 0.00246264 45.997885 0.00246264 32.193651 L 0.00246264 24.992593 C 0.00246264 11.188359 11.192939 -0.0021176 24.997173 -0.0021176 Z M 24.997173 -0.0021176 " stroke="#ffffff" stroke-width="2" stroke-opacity="1" stroke-miterlimit="4"/></g></g></svg>